<?xml version="1.0" encoding="UTF-8" standalone="no"?>
<svg
   xmlns:dc="http://purl.org/dc/elements/1.1/"
   xmlns:cc="http://creativecommons.org/ns#"
   xmlns:rdf="http://www.w3.org/1999/02/22-rdf-syntax-ns#"
   xmlns:svg="http://www.w3.org/2000/svg"
   xmlns="http://www.w3.org/2000/svg"
   xmlns:sodipodi="http://sodipodi.sourceforge.net/DTD/sodipodi-0.dtd"
   xmlns:inkscape="http://www.inkscape.org/namespaces/inkscape"
   version="1.1"
   id="Layer_1"
   x="0px"
   y="0px"
   width="22"
   height="17"
   viewBox="0 0 22 17"
   enable-background="new 0 0 100 100"
   xml:space="preserve"
   inkscape:version="0.48.2 r9819"
   sodipodi:docname="noun_project_3701.svg"><metadata
   id="metadata21"><rdf:RDF><cc:Work
       rdf:about=""><dc:format>image/svg+xml</dc:format><dc:type
         rdf:resource="http://purl.org/dc/dcmitype/StillImage" /></cc:Work></rdf:RDF></metadata><defs
   id="defs19" /><sodipodi:namedview
   pagecolor="#ffffff"
   bordercolor="#666666"
   borderopacity="1"
   objecttolerance="10"
   gridtolerance="10"
   guidetolerance="10"
   inkscape:pageopacity="0"
   inkscape:pageshadow="2"
   inkscape:window-width="1169"
   inkscape:window-height="820"
   id="namedview17"
   showgrid="false"
   fit-margin-top="0"
   fit-margin-left="0"
   fit-margin-right="0"
   fit-margin-bottom="0"
   inkscape:zoom="4.72"
   inkscape:cx="45.28"
   inkscape:cy="33.01"
   inkscape:window-x="400"
   inkscape:window-y="40"
   inkscape:window-maximized="0"
   inkscape:current-layer="Layer_1" />
<path
   clip-rule="evenodd"
   d="M 6.077,10.68 C 6.445,12.5 5.315,13.8 3.66,14.13 C 1.999,14.46 0.4439,13.7 0.0716,11.88 C -0.3023,10.06 0.8303,8.764 2.489,8.433 c 1.656,-0.33 3.215,0.431 3.588,2.247 l 0,0 z m -1.419,0.25 c 0.184,0.9 -0.401,1.64 -1.272,1.81 C 2.513,12.91 1.68,12.46 1.496,11.56 C 1.31,10.65 1.897,9.924 2.768,9.744 c 0.875,-0.18 1.704,0.276 1.89,1.186 l 0,0 z M 7.904,5.303 C 9.311,4.083 9.203,2.372 8.083,1.112 C 6.962,-0.1379 5.253,-0.4479 3.847,0.7722 C 2.439,2.002 2.548,3.713 3.667,4.963 c 1.122,1.25 2.825,1.57 4.237,0.34 l 0,0 z M 6.921,4.273 C 7.617,3.663 7.602,2.723 7.011,2.062 C 6.425,1.402 5.484,1.272 4.787,1.882 C 4.086,2.493 4.102,3.433 4.687,4.093 c 0.588,0.66 1.529,0.79 2.23,0.18 l 0,0 z"
   id="path3"
   inkscape:connector-curvature="0"
   style="fill-rule:evenodd" />

<path
   d="m 9.183,5.168 c -0.389,0.56 -0.952,1.06 -1.571,1.38 l 1.069,2.009 l -2.077,0.97 c 0.297,0.613 0.45,1.343 0.415,2.033 L 10.01,10.95 L 12.17,13 H 16.2 L 9.183,5.168 z M 10.47,10.05 C 10.02,9.907 9.771,9.417 9.925,8.967 c 0.155,-0.44 0.645,-0.69 1.095,-0.53 c 0.45,0.15 0.7,0.63 0.54,1.08 c -0.15,0.44 -0.64,0.683 -1.09,0.533 z"
   id="path7"
   inkscape:connector-curvature="0" />
<path
   d="M 19.54,9.047 C 19.13,7.027 17.92,6.618 16.29,6.817 l -3.9,0.47 l 2.42,2.71 l 4.73,-0.95 z"
   id="path9"
   inkscape:connector-curvature="0" />
<rect
   x="12.46"
   y="14.18"
   width="2.862"
   height="2.824"
   id="rect11" />
<rect
   x="15.8"
   y="14.18"
   width="3.1"
   height="2.824"
   id="rect13" />
<rect
   x="19.38"
   y="14.18"
   width="2.623"
   height="2.824"
   id="rect15" />
</svg>